<svg xmlns="http://www.w3.org/2000/svg" xmlns:xlink="http://www.w3.org/1999/xlink" width="700" height="500">
<defs>
<style type="text/css"><![CDATA[
  .borderLine {
	   stroke: none;
	   fill-opacity:  0.4 ;
  }
  .outLine {
	   stroke-width:  1 ;
	   fill: none;
  }
  .circle {
	   stroke: #888888;
	   stroke-width: 0.5;
	   fill: none;
    pointer-events: all;
  }
  .nLabel {
	   font-family: Arial;
    pointer-events: none;
	   font-size: 10px;
	   text-anchor: middle;
	   alignment-baseline: central;
  }
  .belong {
	   font-family: Arial;
    pointer-events: none;
	   font-size: 5px;
	   text-anchor: middle;
	   alignment-baseline: central;
  }
  .legend {
    font-family: Arial;
    font-size: 15px;
  }
  #legendBox {
    display:  inline ;
  }
  .p0{
    stroke: none;
    fill: #e6194b;
  }
  .q0{
    fill: none;
    stroke: #e6194b;
  }
  .p1{
    stroke: none;
    fill: #3cb44b;
  }
  .q1{
    fill: none;
    stroke: #3cb44b;
  }
  .p2{
    stroke: none;
    fill: #ffe119;
  }
  .q2{
    fill: none;
    stroke: #ffe119;
  }
  .p3{
    stroke: none;
    fill: #0082c8;
  }
  .q3{
    fill: none;
    stroke: #0082c8;
  }
]]>
</style>
<symbol id="bl0">
<path d="M 465.14 325.89 L 464.26 331.70 L 463.29 337.50 L 462.15 343.26 L 460.80 348.96 L 459.22 354.61 L 457.41 360.19 L 455.36 365.69 L 453.08 371.09 L 450.59 376.40 L 447.86 381.59 L 444.92 386.66 L 441.77 391.61 L 438.41 396.42 L 434.85 401.08 L 431.10 405.59 L 427.16 409.93 L 423.04 414.10 L 418.75 418.10 L 414.29 421.91 L 409.67 425.53 L 404.91 428.95 L 400.01 432.16 L 394.97 435.17 L 389.82 437.97 L 384.54 440.53 L 379.17 442.88 L 373.70 445.00 L 368.15 446.88 L 362.52 448.53 L 356.83 449.94 L 351.07 451.10 L 345.28 452.02 L 339.47 452.70 L 333.62 453.13 L 327.75 453.31 L 321.89 453.25 L 316.03 452.93 L 310.19 452.38 L 304.37 451.59 L 298.60 450.59 L 292.84 449.42 L 287.10 448.16 L 281.37 446.86 L 275.63 445.55 L 269.91 444.23 L 264.18 442.91 L 258.45 441.59 L 252.72 440.26 L 247.00 438.94 L 241.27 437.61 L 235.54 436.28 L 229.81 434.96 L 224.09 433.64 L 218.35 432.32 L 212.63 431.00 L 206.90 429.68 L 201.17 428.36 L 195.44 427.03 L 189.71 425.70 L 183.98 424.37 L 178.25 423.05 L 172.53 421.73 L 166.80 420.40 L 161.07 419.08 L 155.35 417.75 L 149.62 416.42 L 143.89 415.10 L 138.16 413.78 L 132.44 412.45 L 126.71 411.13 L 120.98 409.80 L 115.25 408.47 L 109.53 407.15 L 103.80 405.82 L 98.08 404.48 L 92.36 403.12 L 86.65 401.72 L 80.97 400.20 L 75.33 398.51 L 69.77 396.61 L 64.32 394.43 L 59.01 391.91 L 53.88 389.07 L 48.94 385.91 L 44.22 382.41 L 39.74 378.63 L 35.51 374.56 L 31.56 370.22 L 27.91 365.63 L 24.55 360.81 L 21.53 355.78 L 18.83 350.57 L 16.48 345.19 L 14.49 339.67 L 12.87 334.03 L 11.61 328.30 L 10.75 322.50 L 10.25 316.65 L 10.14 310.79 L 10.42 304.93 L 11.08 299.10 L 12.11 293.32 L 13.53 287.63 L 15.31 282.03 L 17.44 276.57 L 19.93 271.25 L 22.72 266.09 L 25.77 261.07 L 29.06 256.21 L 32.50 251.44 L 36.03 246.73 L 39.58 242.04 L 43.14 237.36 L 46.71 232.68 L 50.27 228.00 L 53.84 223.31 L 57.40 218.63 L 60.97 213.95 L 64.53 209.27 L 68.10 204.58 L 71.66 199.90 L 75.23 195.22 L 78.80 190.54 L 82.36 185.86 L 85.93 181.17 L 89.50 176.49 L 93.06 171.81 L 96.63 167.13 L 100.20 162.44 L 103.77 157.76 L 107.34 153.08 L 110.92 148.40 L 114.53 143.76 L 118.23 139.18 L 122.09 134.74 L 126.19 130.52 L 130.55 126.56 L 135.18 122.93 L 140.08 119.67 L 145.17 116.69 L 150.38 113.86 L 155.62 111.10 L 160.89 108.38 L 166.16 105.66 L 171.43 102.95 L 176.70 100.24 L 181.98 97.53 L 187.25 94.83 L 192.52 92.13 L 197.80 89.42 L 203.08 86.72 L 208.35 84.01 L 213.62 81.30 L 218.89 78.59 L 224.17 75.88 L 229.45 73.17 L 234.72 70.47 L 239.99 67.77 L 245.26 65.06 L 250.54 62.36 L 255.84 59.68 L 261.15 57.05 L 266.50 54.50 L 271.92 52.14 L 277.45 50.13 L 283.12 48.59 L 288.91 47.52 L 294.76 46.96 L 300.64 46.91 L 306.53 47.28 L 312.38 47.97 L 318.20 48.92 L 323.99 50.04 L 329.75 51.24 L 335.52 52.47 L 341.28 53.71 L 347.04 54.96 L 352.79 56.20 L 358.56 57.44 L 364.31 58.69 L 370.07 59.93 L 375.83 61.18 L 381.59 62.42 L 387.35 63.66 L 393.10 64.90 L 398.86 66.15 L 404.62 67.39 L 410.37 68.64 L 416.13 69.90 L 421.88 71.16 L 427.63 72.47 L 433.36 73.86 L 439.05 75.40 L 444.67 77.17 L 450.14 79.29 L 455.40 81.86 L 460.43 84.86 L 465.17 88.30 L 469.57 92.16 L 473.61 96.40 L 477.26 100.98 L 480.46 105.88 L 483.22 111.05 L 485.51 116.43 L 487.28 122.01 L 488.56 127.73 L 489.34 133.53 L 489.63 139.39 L 489.52 145.27 L 489.12 151.15 L 488.53 157.01 L 487.82 162.84 L 487.04 168.67 L 486.24 174.49 L 485.43 180.33 L 484.63 186.15 L 483.82 191.97 L 483.02 197.79 L 482.21 203.62 L 481.40 209.44 L 480.59 215.26 L 479.78 221.09 L 478.97 226.91 L 478.16 232.74 L 477.34 238.56 L 476.53 244.39 L 475.72 250.21 L 474.91 256.03 L 474.10 261.85 L 473.29 267.68 L 472.48 273.50 L 471.67 279.32 L 470.86 285.15 L 470.05 290.97 L 469.23 296.79 L 468.42 302.62 L 467.61 308.44 L 466.80 314.25 L 465.98 320.08 Z" />
</symbol>
<symbol id="bl1">
<path d="M 460.45 278.55 L 461.74 283.77 L 462.83 289.04 L 463.72 294.35 L 464.40 299.68 L 464.87 305.04 L 465.14 310.42 L 465.19 315.79 L 465.04 321.16 L 464.69 326.53 L 464.12 331.88 L 463.34 337.21 L 462.37 342.50 L 461.18 347.74 L 459.79 352.94 L 458.21 358.08 L 456.43 363.15 L 454.45 368.16 L 452.28 373.08 L 449.91 377.91 L 447.37 382.65 L 444.64 387.28 L 441.73 391.81 L 438.66 396.22 L 435.41 400.51 L 432.00 404.66 L 428.43 408.69 L 424.71 412.57 L 420.83 416.31 L 416.82 419.89 L 412.68 423.32 L 408.40 426.58 L 404.00 429.67 L 399.48 432.59 L 394.86 435.33 L 390.13 437.90 L 385.30 440.28 L 380.39 442.46 L 375.39 444.46 L 370.33 446.26 L 365.19 447.86 L 360.00 449.27 L 354.76 450.47 L 349.47 451.46 L 344.15 452.26 L 338.81 452.85 L 333.44 453.22 L 328.07 453.39 L 322.69 453.36 L 317.32 453.11 L 311.96 452.66 L 306.62 452.01 L 301.30 451.17 L 296.01 450.18 L 290.73 449.09 L 285.48 447.93 L 280.22 446.74 L 274.97 445.53 L 269.73 444.31 L 264.49 443.09 L 259.24 441.87 L 253.99 440.65 L 248.75 439.42 L 243.51 438.20 L 238.26 436.98 L 233.02 435.75 L 227.77 434.53 L 222.53 433.31 L 217.28 432.09 L 212.04 430.88 L 206.80 429.66 L 201.55 428.44 L 196.30 427.21 L 191.06 425.99 L 185.81 424.77 L 180.57 423.54 L 175.33 422.32 L 170.08 421.09 L 164.84 419.87 L 159.59 418.65 L 154.35 417.42 L 149.11 416.20 L 143.86 414.97 L 138.62 413.75 L 133.37 412.53 L 128.13 411.30 L 122.89 410.08 L 117.64 408.85 L 112.40 407.63 L 107.16 406.40 L 101.91 405.18 L 96.67 403.94 L 91.43 402.70 L 86.20 401.44 L 80.98 400.11 L 75.80 398.68 L 70.69 397.04 L 65.68 395.13 L 60.78 392.94 L 56.02 390.47 L 51.43 387.71 L 47.00 384.69 L 42.75 381.41 L 38.72 377.88 L 34.90 374.12 L 31.31 370.14 L 27.97 365.94 L 24.88 361.55 L 22.05 357.00 L 19.52 352.28 L 17.26 347.41 L 15.28 342.43 L 13.63 337.33 L 12.27 332.14 L 11.22 326.88 L 10.50 321.57 L 10.10 316.22 L 10.00 310.86 L 10.24 305.51 L 10.79 300.18 L 11.65 294.89 L 12.84 289.66 L 14.33 284.51 L 16.12 279.46 L 18.22 274.53 L 20.60 269.73 L 23.24 265.06 L 26.14 260.55 L 29.22 256.14 L 32.40 251.79 L 35.63 247.49 L 38.87 243.19 L 42.13 238.90 L 45.38 234.61 L 48.64 230.33 L 51.89 226.03 L 55.15 221.74 L 58.41 217.46 L 61.67 213.17 L 64.92 208.89 L 68.18 204.59 L 71.43 200.30 L 74.69 196.02 L 77.95 191.73 L 81.21 187.44 L 84.46 183.15 L 87.72 178.85 L 90.98 174.57 L 94.24 170.28 L 97.50 165.99 L 100.75 161.70 L 104.02 157.41 L 107.28 153.13 L 110.54 148.84 L 113.83 144.58 L 117.18 140.36 L 120.65 136.24 L 124.30 132.27 L 128.15 128.49 L 132.23 124.99 L 136.58 121.83 L 141.16 119.02 L 145.95 116.59 L 150.93 114.59 L 156.06 112.99 L 161.30 111.81 L 166.63 111.10 L 171.99 110.81 L 177.36 110.96 L 182.70 111.57 L 187.97 112.62 L 193.14 114.08 L 198.16 115.99 L 203.02 118.29 L 207.69 120.97 L 212.14 124.00 L 216.42 127.29 L 220.59 130.73 L 224.69 134.27 L 228.74 137.86 L 232.77 141.46 L 236.80 145.06 L 240.83 148.67 L 244.86 152.27 L 248.92 155.83 L 253.04 159.31 L 257.31 162.62 L 261.76 165.66 L 266.40 168.40 L 271.22 170.80 L 276.22 172.78 L 281.37 174.36 L 286.62 175.52 L 291.95 176.26 L 297.34 176.62 L 302.73 176.68 L 308.13 176.50 L 313.50 176.19 L 318.89 175.91 L 324.28 175.78 L 329.66 175.82 L 335.04 176.05 L 340.41 176.50 L 345.76 177.15 L 351.08 178.01 L 356.36 179.09 L 361.58 180.39 L 366.74 181.94 L 371.82 183.75 L 376.82 185.80 L 381.74 188.06 L 386.60 190.51 L 391.40 193.09 L 396.16 195.76 L 400.87 198.51 L 405.49 201.37 L 409.98 204.39 L 414.33 207.59 L 418.53 210.97 L 422.53 214.56 L 426.37 218.33 L 430.04 222.27 L 433.54 226.35 L 436.88 230.57 L 440.06 234.91 L 443.06 239.38 L 445.89 243.95 L 448.54 248.63 L 451.00 253.42 L 453.27 258.29 L 455.36 263.25 L 457.25 268.28 L 458.95 273.39 Z" />
</symbol>
<symbol id="bl2">
<path d="M 431.47 405.44 L 428.30 408.97 L 425.02 412.39 L 421.63 415.71 L 418.12 418.90 L 414.50 421.97 L 410.79 424.92 L 406.98 427.73 L 403.07 430.41 L 399.08 432.97 L 394.99 435.37 L 390.82 437.64 L 386.59 439.77 L 382.28 441.75 L 377.91 443.59 L 373.48 445.27 L 368.99 446.80 L 364.46 448.18 L 359.88 449.41 L 355.26 450.47 L 350.60 451.37 L 345.92 452.12 L 341.21 452.71 L 336.49 453.13 L 331.76 453.40 L 327.02 453.50 L 322.28 453.44 L 317.54 453.22 L 312.81 452.84 L 308.10 452.30 L 303.41 451.60 L 298.75 450.73 L 294.13 449.71 L 289.53 448.53 L 284.99 447.20 L 280.48 445.70 L 276.03 444.07 L 271.65 442.27 L 267.32 440.33 L 263.06 438.24 L 258.89 436.01 L 254.78 433.63 L 250.75 431.12 L 246.82 428.47 L 242.99 425.69 L 239.24 422.78 L 235.60 419.74 L 232.07 416.58 L 228.64 413.31 L 225.33 409.91 L 222.14 406.40 L 219.06 402.79 L 216.11 399.08 L 213.30 395.27 L 210.60 391.36 L 208.05 387.37 L 205.64 383.28 L 203.36 379.12 L 201.24 374.88 L 199.25 370.58 L 197.41 366.21 L 195.73 361.77 L 194.20 357.28 L 192.82 352.74 L 191.62 348.16 L 190.60 343.53 L 189.79 338.86 L 189.21 334.15 L 188.82 329.43 L 188.59 324.72 L 188.49 320.04 L 188.49 315.38 L 188.54 310.72 L 188.65 306.06 L 188.85 301.37 L 189.19 296.65 L 189.68 291.92 L 190.38 287.20 L 191.31 282.53 L 192.45 277.90 L 193.76 273.32 L 195.26 268.79 L 196.90 264.32 L 198.70 259.90 L 200.66 255.55 L 202.75 251.27 L 204.99 247.06 L 207.36 242.92 L 209.85 238.84 L 212.40 234.81 L 215.00 230.81 L 217.64 226.83 L 220.28 222.86 L 222.91 218.88 L 225.47 214.86 L 227.92 210.76 L 230.17 206.55 L 232.20 202.24 L 233.97 197.82 L 235.41 193.28 L 236.52 188.64 L 237.32 183.95 L 237.77 179.20 L 237.94 174.44 L 237.86 169.67 L 237.58 164.90 L 237.16 160.15 L 236.68 155.40 L 236.17 150.66 L 235.65 145.92 L 235.13 141.18 L 234.62 136.44 L 234.10 131.70 L 233.59 126.95 L 233.12 122.20 L 232.76 117.46 L 232.61 112.72 L 232.75 107.98 L 233.20 103.25 L 233.98 98.58 L 235.10 93.98 L 236.55 89.47 L 238.31 85.07 L 240.41 80.82 L 242.80 76.73 L 245.47 72.82 L 248.44 69.13 L 251.66 65.65 L 255.12 62.41 L 258.81 59.45 L 262.71 56.76 L 266.78 54.35 L 271.03 52.25 L 275.42 50.47 L 279.93 49.00 L 284.53 47.88 L 289.20 47.08 L 293.91 46.62 L 298.65 46.50 L 303.40 46.69 L 308.12 47.14 L 312.81 47.85 L 317.47 48.72 L 322.13 49.67 L 326.78 50.66 L 331.43 51.65 L 336.09 52.65 L 340.74 53.65 L 345.39 54.65 L 350.03 55.65 L 354.68 56.65 L 359.33 57.65 L 363.98 58.65 L 368.63 59.65 L 373.28 60.65 L 377.93 61.65 L 382.58 62.65 L 387.22 63.64 L 391.87 64.64 L 396.52 65.64 L 401.17 66.64 L 405.82 67.64 L 410.46 68.64 L 415.11 69.65 L 419.76 70.66 L 424.40 71.67 L 429.05 72.70 L 433.68 73.78 L 438.29 74.94 L 442.86 76.24 L 447.35 77.77 L 451.72 79.59 L 455.95 81.71 L 460.02 84.11 L 463.90 86.82 L 467.58 89.80 L 471.04 93.03 L 474.24 96.51 L 477.19 100.22 L 479.87 104.12 L 482.24 108.21 L 484.32 112.46 L 486.09 116.85 L 487.52 121.36 L 488.63 125.97 L 489.41 130.63 L 489.86 135.35 L 490.00 140.09 L 489.88 144.83 L 489.52 149.55 L 489.00 154.26 L 488.39 158.97 L 487.75 163.68 L 487.10 168.38 L 486.45 173.08 L 485.80 177.78 L 485.15 182.49 L 484.50 187.19 L 483.86 191.89 L 483.21 196.59 L 482.56 201.30 L 481.91 206.01 L 481.26 210.71 L 480.61 215.41 L 479.96 220.12 L 479.31 224.83 L 478.65 229.53 L 478.00 234.23 L 477.35 238.93 L 476.70 243.63 L 476.05 248.34 L 475.39 253.04 L 474.74 257.74 L 474.09 262.45 L 473.44 267.16 L 472.79 271.86 L 472.13 276.56 L 471.48 281.26 L 470.83 285.97 L 470.18 290.67 L 469.53 295.37 L 468.87 300.07 L 468.22 304.78 L 467.57 309.48 L 466.92 314.18 L 466.27 318.88 L 465.60 323.58 L 464.92 328.28 L 464.20 332.97 L 463.42 337.66 L 462.52 342.32 L 461.49 346.94 L 460.30 351.53 L 458.96 356.08 L 457.47 360.58 L 455.82 365.02 L 454.02 369.41 L 452.08 373.73 L 449.98 377.99 L 447.75 382.17 L 445.37 386.27 L 442.85 390.29 L 440.21 394.23 L 437.42 398.06 L 434.50 401.80 Z" />
</symbol>
<symbol id="bl3">
<path d="M 462.17 343.17 L 460.82 348.86 L 459.25 354.50 L 457.45 360.07 L 455.41 365.55 L 453.15 370.95 L 450.67 376.24 L 447.95 381.42 L 445.02 386.49 L 441.89 391.43 L 438.54 396.23 L 435.00 400.89 L 431.27 405.40 L 427.34 409.74 L 423.24 413.91 L 418.97 417.91 L 414.53 421.71 L 409.93 425.33 L 405.19 428.76 L 400.31 431.98 L 395.29 434.99 L 390.15 437.80 L 384.90 440.37 L 379.54 442.73 L 374.09 444.86 L 368.56 446.75 L 362.95 448.41 L 357.28 449.84 L 351.54 451.02 L 345.77 451.96 L 339.96 452.66 L 334.13 453.10 L 328.28 453.31 L 322.43 453.27 L 316.59 452.98 L 310.76 452.44 L 304.96 451.69 L 299.19 450.70 L 293.45 449.55 L 287.72 448.31 L 281.99 447.03 L 276.27 445.72 L 270.56 444.41 L 264.85 443.09 L 259.13 441.77 L 253.42 440.45 L 247.71 439.12 L 242.00 437.80 L 236.28 436.48 L 230.57 435.15 L 224.86 433.83 L 219.14 432.52 L 213.43 431.20 L 207.72 429.88 L 202.00 428.56 L 196.29 427.23 L 190.58 425.91 L 184.87 424.59 L 179.15 423.26 L 173.44 421.94 L 167.73 420.61 L 162.02 419.29 L 156.30 417.97 L 150.59 416.65 L 144.88 415.33 L 139.16 414.00 L 133.45 412.68 L 127.74 411.35 L 122.03 410.03 L 116.31 408.71 L 110.60 407.38 L 104.89 406.05 L 99.19 404.72 L 93.48 403.37 L 87.78 401.98 L 82.11 400.49 L 76.48 398.85 L 70.90 397.02 L 65.44 394.91 L 60.12 392.47 L 54.96 389.70 L 49.99 386.62 L 45.24 383.21 L 40.71 379.50 L 36.44 375.51 L 32.44 371.23 L 28.72 366.71 L 25.30 361.97 L 22.21 357.00 L 19.45 351.84 L 17.01 346.52 L 14.95 341.04 L 13.24 335.45 L 11.89 329.75 L 10.93 323.99 L 10.34 318.16 L 10.12 312.32 L 10.30 306.47 L 10.86 300.64 L 11.79 294.86 L 13.10 289.17 L 14.78 283.56 L 16.81 278.07 L 19.22 272.74 L 21.95 267.57 L 25.01 262.59 L 28.41 257.83 L 32.10 253.29 L 36.07 249.00 L 40.33 244.99 L 44.83 241.26 L 49.56 237.82 L 54.52 234.72 L 59.66 231.94 L 64.97 229.49 L 70.44 227.41 L 76.03 225.69 L 81.71 224.32 L 87.48 223.35 L 93.30 222.75 L 99.15 222.52 L 105.00 222.69 L 110.82 223.24 L 116.61 224.16 L 122.33 225.50 L 127.99 227.20 L 133.61 229.27 L 139.19 231.64 L 144.77 234.10 L 150.38 236.33 L 156.05 238.12 L 161.76 239.40 L 167.51 240.17 L 173.30 240.38 L 179.08 240.08 L 184.81 239.27 L 190.44 237.93 L 195.93 236.11 L 201.26 233.83 L 206.37 231.10 L 211.30 228.02 L 216.07 224.69 L 220.72 221.19 L 225.28 217.59 L 229.80 213.95 L 234.33 210.30 L 238.88 206.71 L 243.52 203.23 L 248.28 199.91 L 253.15 196.76 L 258.13 193.80 L 263.24 191.06 L 268.46 188.53 L 273.78 186.22 L 279.19 184.14 L 284.68 182.27 L 290.24 180.62 L 295.85 179.16 L 301.50 177.80 L 307.15 176.40 L 312.77 174.86 L 318.30 173.07 L 323.69 170.94 L 328.87 168.36 L 333.81 165.35 L 338.47 161.92 L 342.78 158.08 L 346.75 153.87 L 350.33 149.32 L 353.47 144.44 L 356.19 139.26 L 358.50 133.80 L 360.45 128.08 L 362.26 122.26 L 364.23 116.53 L 366.57 111.04 L 369.33 105.83 L 372.52 100.92 L 376.16 96.35 L 380.18 92.12 L 384.57 88.27 L 389.29 84.85 L 394.31 81.86 L 399.56 79.32 L 405.04 77.29 L 410.67 75.76 L 416.41 74.72 L 422.22 74.24 L 428.07 74.26 L 433.88 74.80 L 439.61 75.89 L 445.23 77.48 L 450.68 79.56 L 455.91 82.14 L 460.90 85.17 L 465.60 88.64 L 469.96 92.53 L 473.95 96.79 L 477.56 101.38 L 480.71 106.29 L 483.43 111.47 L 485.67 116.86 L 487.40 122.43 L 488.64 128.14 L 489.38 133.94 L 489.63 139.78 L 489.49 145.65 L 489.08 151.51 L 488.48 157.35 L 487.76 163.17 L 486.98 168.98 L 486.18 174.80 L 485.37 180.61 L 484.57 186.43 L 483.77 192.23 L 482.97 198.04 L 482.16 203.86 L 481.35 209.67 L 480.55 215.48 L 479.74 221.29 L 478.93 227.10 L 478.12 232.91 L 477.31 238.71 L 476.50 244.53 L 475.70 250.34 L 474.89 256.14 L 474.08 261.96 L 473.27 267.77 L 472.47 273.58 L 471.66 279.38 L 470.85 285.20 L 470.04 291.00 L 469.23 296.81 L 468.42 302.62 L 467.62 308.43 L 466.81 314.23 L 465.99 320.04 L 465.15 325.84 L 464.27 331.64 L 463.30 337.42 Z" />
</symbol>
</defs>
<!-- isDone: 0 -->
<rect width="700" height="500" style="fill:#fff;stroke-width:0" />
<use class="p0 borderLine" xlink:href="#bl0"/>
<use class="p1 borderLine" xlink:href="#bl1"/>
<use class="p2 borderLine" xlink:href="#bl2"/>
<use class="p3 borderLine" xlink:href="#bl3"/>
<use class="q0 outLine" xlink:href="#bl0"/>
<use class="q1 outLine" xlink:href="#bl1"/>
<use class="q2 outLine" xlink:href="#bl2"/>
<use class="q3 outLine" xlink:href="#bl3"/>
<circle onclick="fromCircle(12)" class="circle" cx="172.6647" cy="175.6631" r="59.5030" />
<text class="nLabel" x="172.66" y="170.66">1</text>
<text class="belong" x="172.66" y="180.66">(1, 2)</text>
<circle onclick="fromCircle(15)" class="circle" cx="326.4803" cy="314.7498" r="133.0527" />
<text class="nLabel" x="326.48" y="309.75">5</text>
<text class="belong" x="326.48" y="319.75">(1, 2, 3, 4)</text>
<circle onclick="fromCircle(10)" class="circle" cx="297.8073" cy="111.5118" r="59.5030" />
<text class="nLabel" x="297.81" y="106.51">1</text>
<text class="belong" x="297.81" y="116.51">(1, 3)</text>
<circle onclick="fromCircle(11)" class="circle" cx="425.0923" cy="138.7744" r="59.5030" />
<text class="nLabel" x="425.09" y="133.77">1</text>
<text class="belong" x="425.09" y="143.77">(1, 3, 4)</text>
<circle onclick="fromCircle(13)" class="circle" cx="99.4458" cy="312.2751" r="84.1499" />
<text class="nLabel" x="99.45" y="307.28">2</text>
<text class="belong" x="99.45" y="317.28">(1, 2, 4)</text>
<g id="legendBox">
<rect class="p0 borderLine" x="500.00" y="50.00" width="30.00" height="15.00" />
<rect class="q0" x="500.00" y="50.00" width="30.00" height="15.00" />
<text class="legend" x="540.00" y="65.00">A</text>
<rect class="p1 borderLine" x="500.00" y="90.00" width="30.00" height="15.00" />
<rect class="q1" x="500.00" y="90.00" width="30.00" height="15.00" />
<text class="legend" x="540.00" y="105.00">B</text>
<rect class="p2 borderLine" x="500.00" y="130.00" width="30.00" height="15.00" />
<rect class="q2" x="500.00" y="130.00" width="30.00" height="15.00" />
<text class="legend" x="540.00" y="145.00">C</text>
<rect class="p3 borderLine" x="500.00" y="170.00" width="30.00" height="15.00" />
<rect class="q3" x="500.00" y="170.00" width="30.00" height="15.00" />
<text class="legend" x="540.00" y="185.00">D</text>
</g>
</svg>
